<mxfile host="drawio-plugin" modified="2022-08-27T14:06:20.715Z" agent="5.0 (Windows NT 6.2; Win64; x64) AppleWebKit/537.36 (KHTML, like Gecko) Chrome/98.0.4758.102 Safari/537.36" etag="98DA-whZV6J-bcgqhHjR" version="15.5.4" type="embed"><diagram id="dhoAP0_BuYWN3otgP-wf" name="Seite-1"><mxGraphModel dx="1961" dy="1945" grid="1" gridSize="10" guides="1" tooltips="1" connect="1" arrows="1" fold="1" page="1" pageScale="1" pageWidth="827" pageHeight="1169" math="0" shadow="0"><root><mxCell id="0"/><mxCell id="1" parent="0"/><mxCell id="0izqry75-8yGy5xJ9M0Q-30" value="" style="rounded=0;whiteSpace=wrap;html=1;" parent="1" vertex="1"><mxGeometry x="160" y="-100" width="477" height="470" as="geometry"/></mxCell><mxCell id="0izqry75-8yGy5xJ9M0Q-29" value="" style="rounded=0;whiteSpace=wrap;html=1;" parent="1" vertex="1"><mxGeometry x="321.5" y="433" width="477" height="310" as="geometry"/></mxCell><mxCell id="0izqry75-8yGy5xJ9M0Q-28" value="" style="rounded=0;whiteSpace=wrap;html=1;" parent="1" vertex="1"><mxGeometry x="-70" y="433" width="370" height="307" as="geometry"/></mxCell><mxCell id="0izqry75-8yGy5xJ9M0Q-2" value="&lt;h1&gt;Backend&lt;/h1&gt;" style="text;html=1;strokeColor=none;fillColor=none;spacing=5;spacingTop=-20;whiteSpace=wrap;overflow=hidden;rounded=0;" parent="1" vertex="1"><mxGeometry x="320" y="433" width="130" height="40" as="geometry"/></mxCell><mxCell id="0izqry75-8yGy5xJ9M0Q-3" value="&lt;h1&gt;Frontend&lt;/h1&gt;" style="text;html=1;strokeColor=none;fillColor=none;spacing=5;spacingTop=-20;whiteSpace=wrap;overflow=hidden;rounded=0;" parent="1" vertex="1"><mxGeometry x="-70" y="433" width="120" height="50" as="geometry"/></mxCell><mxCell id="0izqry75-8yGy5xJ9M0Q-7" value="" style="edgeStyle=orthogonalEdgeStyle;rounded=0;orthogonalLoop=1;jettySize=auto;html=1;entryX=0;entryY=0.5;entryDx=0;entryDy=0;" parent="1" source="0izqry75-8yGy5xJ9M0Q-4" target="0izqry75-8yGy5xJ9M0Q-5" edge="1"><mxGeometry relative="1" as="geometry"><mxPoint x="380" y="545" as="targetPoint"/></mxGeometry></mxCell><mxCell id="0izqry75-8yGy5xJ9M0Q-8" value="POST&lt;br style=&quot;font-size: 14px;&quot;&gt;JSON with custom Format" style="edgeLabel;html=1;align=center;verticalAlign=middle;resizable=0;points=[];fontSize=14;fontStyle=1" parent="0izqry75-8yGy5xJ9M0Q-7" vertex="1" connectable="0"><mxGeometry x="0.1691" relative="1" as="geometry"><mxPoint x="-19" as="offset"/></mxGeometry></mxCell><mxCell id="0izqry75-8yGy5xJ9M0Q-41" style="edgeStyle=orthogonalEdgeStyle;rounded=0;orthogonalLoop=1;jettySize=auto;html=1;exitX=0;exitY=0.75;exitDx=0;exitDy=0;entryX=1;entryY=0.75;entryDx=0;entryDy=0;fontSize=16;endArrow=classic;endFill=1;strokeColor=default;" parent="1" source="0izqry75-8yGy5xJ9M0Q-4" target="0izqry75-8yGy5xJ9M0Q-11" edge="1"><mxGeometry relative="1" as="geometry"/></mxCell><mxCell id="0izqry75-8yGy5xJ9M0Q-4" value="Edit Page XY" style="rounded=1;whiteSpace=wrap;html=1;" parent="1" vertex="1"><mxGeometry x="160" y="515" width="120" height="60" as="geometry"/></mxCell><mxCell id="0izqry75-8yGy5xJ9M0Q-21" style="edgeStyle=orthogonalEdgeStyle;rounded=0;orthogonalLoop=1;jettySize=auto;html=1;exitX=0.25;exitY=0;exitDx=0;exitDy=0;entryX=1;entryY=0.5;entryDx=0;entryDy=0;fontSize=14;fontStyle=1" parent="1" source="0izqry75-8yGy5xJ9M0Q-5" target="0izqry75-8yGy5xJ9M0Q-20" edge="1"><mxGeometry relative="1" as="geometry"/></mxCell><mxCell id="0izqry75-8yGy5xJ9M0Q-5" value="updateHandler.php" style="rounded=1;whiteSpace=wrap;html=1;" parent="1" vertex="1"><mxGeometry x="500" y="515" width="120" height="60" as="geometry"/></mxCell><mxCell id="0izqry75-8yGy5xJ9M0Q-9" value="&lt;h1&gt;Session&lt;/h1&gt;" style="text;html=1;strokeColor=none;fillColor=none;spacing=5;spacingTop=-20;whiteSpace=wrap;overflow=hidden;rounded=0;" parent="1" vertex="1"><mxGeometry x="160" y="-100" width="120" height="40" as="geometry"/></mxCell><mxCell id="0izqry75-8yGy5xJ9M0Q-18" style="edgeStyle=orthogonalEdgeStyle;rounded=0;orthogonalLoop=1;jettySize=auto;html=1;exitX=1;exitY=0.5;exitDx=0;exitDy=0;" parent="1" source="0izqry75-8yGy5xJ9M0Q-10" target="0izqry75-8yGy5xJ9M0Q-5" edge="1"><mxGeometry relative="1" as="geometry"/></mxCell><mxCell id="0izqry75-8yGy5xJ9M0Q-19" value="READ" style="edgeLabel;html=1;align=center;verticalAlign=middle;resizable=0;points=[];fontSize=14;fontStyle=1" parent="0izqry75-8yGy5xJ9M0Q-18" vertex="1" connectable="0"><mxGeometry x="0.0234" relative="1" as="geometry"><mxPoint as="offset"/></mxGeometry></mxCell><mxCell id="0izqry75-8yGy5xJ9M0Q-33" value="WRITE" style="edgeStyle=orthogonalEdgeStyle;rounded=0;orthogonalLoop=1;jettySize=auto;html=1;exitX=0.5;exitY=0;exitDx=0;exitDy=0;entryX=0;entryY=0.5;entryDx=0;entryDy=0;fontSize=14;fontStyle=1" parent="1" source="0izqry75-8yGy5xJ9M0Q-11" target="0izqry75-8yGy5xJ9M0Q-10" edge="1"><mxGeometry relative="1" as="geometry"/></mxCell><mxCell id="0izqry75-8yGy5xJ9M0Q-38" style="edgeStyle=orthogonalEdgeStyle;rounded=0;orthogonalLoop=1;jettySize=auto;html=1;exitX=0.5;exitY=1;exitDx=0;exitDy=0;entryX=0;entryY=0.5;entryDx=0;entryDy=0;endArrow=classic;endFill=1;strokeColor=default;fontSize=15;fontStyle=1" parent="1" source="0izqry75-8yGy5xJ9M0Q-11" target="0izqry75-8yGy5xJ9M0Q-25" edge="1"><mxGeometry relative="1" as="geometry"/></mxCell><mxCell id="0izqry75-8yGy5xJ9M0Q-39" value="GET" style="edgeLabel;html=1;align=center;verticalAlign=middle;resizable=0;points=[];fontStyle=1;fontSize=16;" parent="0izqry75-8yGy5xJ9M0Q-38" vertex="1" connectable="0"><mxGeometry x="0.451" y="-2" relative="1" as="geometry"><mxPoint as="offset"/></mxGeometry></mxCell><mxCell id="0izqry75-8yGy5xJ9M0Q-40" style="edgeStyle=orthogonalEdgeStyle;rounded=0;orthogonalLoop=1;jettySize=auto;html=1;exitX=1;exitY=0.25;exitDx=0;exitDy=0;entryX=0;entryY=0.25;entryDx=0;entryDy=0;fontSize=16;endArrow=classic;endFill=1;strokeColor=default;" parent="1" source="0izqry75-8yGy5xJ9M0Q-11" target="0izqry75-8yGy5xJ9M0Q-4" edge="1"><mxGeometry relative="1" as="geometry"/></mxCell><mxCell id="0izqry75-8yGy5xJ9M0Q-11" value="home.php" style="rounded=1;whiteSpace=wrap;html=1;" parent="1" vertex="1"><mxGeometry x="10" y="515" width="120" height="60" as="geometry"/></mxCell><mxCell id="0izqry75-8yGy5xJ9M0Q-32" style="edgeStyle=orthogonalEdgeStyle;rounded=0;orthogonalLoop=1;jettySize=auto;html=1;exitX=1;exitY=0.75;exitDx=0;exitDy=0;entryX=0.132;entryY=0;entryDx=0;entryDy=0;entryPerimeter=0;fontSize=14;fontStyle=1" parent="1" source="0izqry75-8yGy5xJ9M0Q-20" target="0izqry75-8yGy5xJ9M0Q-5" edge="1"><mxGeometry relative="1" as="geometry"/></mxCell><mxCell id="0izqry75-8yGy5xJ9M0Q-20" value="map" style="rounded=1;whiteSpace=wrap;html=1;" parent="1" vertex="1"><mxGeometry x="338.5" y="302" width="120" height="60" as="geometry"/></mxCell><mxCell id="0izqry75-8yGy5xJ9M0Q-37" style="rounded=0;orthogonalLoop=1;jettySize=auto;html=1;exitX=0;exitY=0;exitDx=0;exitDy=0;endArrow=none;endFill=0;dashed=1;" parent="1" source="0izqry75-8yGy5xJ9M0Q-23" target="0izqry75-8yGy5xJ9M0Q-36" edge="1"><mxGeometry relative="1" as="geometry"/></mxCell><mxCell id="0izqry75-8yGy5xJ9M0Q-23" value="currentGroup" style="rounded=1;whiteSpace=wrap;html=1;" parent="1" vertex="1"><mxGeometry x="340" y="150" width="120" height="60" as="geometry"/></mxCell><mxCell id="0izqry75-8yGy5xJ9M0Q-24" value="user (Dev Hack for $_SERVER['REMOTE_USER])" style="rounded=1;whiteSpace=wrap;html=1;" parent="1" vertex="1"><mxGeometry x="338.5" y="100" width="276" height="30" as="geometry"/></mxCell><mxCell id="0izqry75-8yGy5xJ9M0Q-34" value="WRITE" style="edgeStyle=orthogonalEdgeStyle;rounded=0;orthogonalLoop=1;jettySize=auto;html=1;exitX=1;exitY=0.5;exitDx=0;exitDy=0;entryX=1;entryY=0.5;entryDx=0;entryDy=0;fontSize=14;fontStyle=1" parent="1" source="0izqry75-8yGy5xJ9M0Q-25" target="0izqry75-8yGy5xJ9M0Q-23" edge="1"><mxGeometry relative="1" as="geometry"/></mxCell><mxCell id="0izqry75-8yGy5xJ9M0Q-25" value="api.php" style="rounded=1;whiteSpace=wrap;html=1;" parent="1" vertex="1"><mxGeometry x="540" y="655" width="120" height="60" as="geometry"/></mxCell><mxCell id="0izqry75-8yGy5xJ9M0Q-36" value="&lt;span style=&quot;color: rgb(0 , 0 , 0) ; font-size: 12px&quot;&gt;Used to load&amp;nbsp;&lt;/span&gt;&lt;br style=&quot;color: rgb(0 , 0 , 0) ; font-size: 12px&quot;&gt;&lt;span style=&quot;color: rgb(0 , 0 , 0) ; font-size: 12px&quot;&gt;group related content on home.php &amp;amp; in the backend to edit / delete stuff fromt the right group&lt;/span&gt;" style="shape=note;strokeWidth=2;fontSize=14;size=20;whiteSpace=wrap;html=1;fillColor=#fff2cc;strokeColor=#d6b656;fontColor=#666600;" parent="1" vertex="1"><mxGeometry x="170" y="55" width="143" height="160" as="geometry"/></mxCell><mxCell id="0izqry75-8yGy5xJ9M0Q-10" value="currentServiceUUID" style="rounded=1;whiteSpace=wrap;html=1;" parent="1" vertex="1"><mxGeometry x="340" y="230" width="120" height="60" as="geometry"/></mxCell></root></mxGraphModel></diagram></mxfile>